<svg xmlns="http://www.w3.org/2000/svg" xmlns:xlink="http://www.w3.org/1999/xlink" width="750" height="500" preserveAspectRatio="xMidYMid meet" version="1.0" viewBox="0 0 562.5 375" zoomAndPan="magnify"><g fill="#fca311" fill-opacity="1"><g><g><path d="M 38.171875 -6.265625 L 2.53125 -22.09375 L 2.53125 -28.15625 L 38.171875 -45.984375 L 38.171875 -35.515625 L 16.3125 -25.546875 L 38.171875 -16.671875 Z M 38.171875 -6.265625" transform="translate(2.463795, 214.749442)"/></g></g></g><g fill="#fff" fill-opacity="1"><g><g><path d="M 37.171875 0 L 34.640625 -9.65625 L 17.90625 -9.65625 L 15.296875 0 L 0 0 L 16.8125 -51.734375 L 35.375 -51.734375 L 52.40625 0 Z M 31.75 -21.078125 L 29.53125 -29.53125 C 29.007812 -31.40625 28.378906 -33.832031 27.640625 -36.8125 C 26.898438 -39.800781 26.414062 -41.941406 26.1875 -43.234375 C 25.96875 -42.035156 25.546875 -40.0625 24.921875 -37.3125 C 24.304688 -34.570312 22.929688 -29.160156 20.796875 -21.078125 Z M 31.75 -21.078125" transform="translate(62.059816, 214.749442)"/></g></g></g><g fill="#fff" fill-opacity="1"><g><g><path d="M 29.140625 -40.625 C 33.484375 -40.625 36.929688 -38.800781 39.484375 -35.15625 C 42.035156 -31.519531 43.3125 -26.484375 43.3125 -20.046875 C 43.3125 -13.566406 42.023438 -8.488281 39.453125 -4.8125 C 36.878906 -1.132812 33.300781 0.703125 28.71875 0.703125 C 27.238281 0.703125 25.921875 0.539062 24.765625 0.21875 C 23.617188 -0.09375 22.59375 -0.53125 21.6875 -1.09375 C 20.78125 -1.65625 19.726562 -2.59375 18.53125 -3.90625 L 17.6875 -3.90625 L 15.5 0 L 4.75 0 L 4.75 -54.828125 L 18.53125 -54.828125 L 18.53125 -42.421875 C 18.53125 -40.941406 18.367188 -38.394531 18.046875 -34.78125 L 18.53125 -34.78125 C 19.875 -36.851562 21.421875 -38.34375 23.171875 -39.25 C 24.921875 -40.164062 26.910156 -40.625 29.140625 -40.625 Z M 24.109375 -29.8125 C 22.179688 -29.8125 20.769531 -29.140625 19.875 -27.796875 C 18.976562 -26.460938 18.53125 -24.363281 18.53125 -21.5 L 18.53125 -19.5625 C 18.53125 -16.289062 18.976562 -13.941406 19.875 -12.515625 C 20.769531 -11.097656 22.226562 -10.390625 24.25 -10.390625 C 25.863281 -10.390625 27.101562 -11.21875 27.96875 -12.875 C 28.84375 -14.53125 29.28125 -16.96875 29.28125 -20.1875 C 29.28125 -26.601562 27.554688 -29.8125 24.109375 -29.8125 Z M 24.109375 -29.8125" transform="translate(114.456788, 214.749442)"/></g></g></g><g fill="#fca311" fill-opacity="1"><g><g><path d="M 49.296875 -26.859375 C 49.296875 -18.253906 46.925781 -11.625 42.1875 -6.96875 C 37.457031 -2.320312 30.804688 0 22.234375 0 L 5.5625 0 L 5.5625 -51.515625 L 23.40625 -51.515625 C 31.664062 -51.515625 38.046875 -49.398438 42.546875 -45.171875 C 47.046875 -40.941406 49.296875 -34.835938 49.296875 -26.859375 Z M 34.859375 -26.359375 C 34.859375 -31.078125 33.921875 -34.578125 32.046875 -36.859375 C 30.179688 -39.140625 27.347656 -40.28125 23.546875 -40.28125 L 19.484375 -40.28125 L 19.484375 -11.421875 L 22.59375 -11.421875 C 26.820312 -11.421875 29.921875 -12.644531 31.890625 -15.09375 C 33.867188 -17.550781 34.859375 -21.304688 34.859375 -26.359375 Z M 34.859375 -26.359375" transform="translate(160.880181, 214.749442)"/></g></g></g><g fill="#fca311" fill-opacity="1"><g><g><path d="M 24.03125 0.703125 C 17.382812 0.703125 12.222656 -1.0625 8.546875 -4.59375 C 4.867188 -8.132812 3.03125 -13.171875 3.03125 -19.703125 C 3.03125 -26.441406 4.734375 -31.613281 8.140625 -35.21875 C 11.546875 -38.820312 16.410156 -40.625 22.734375 -40.625 C 28.742188 -40.625 33.382812 -39.054688 36.65625 -35.921875 C 39.9375 -32.785156 41.578125 -28.269531 41.578125 -22.375 L 41.578125 -16.25 L 16.953125 -16.25 C 17.046875 -14.007812 17.859375 -12.253906 19.390625 -10.984375 C 20.929688 -9.722656 23.03125 -9.09375 25.6875 -9.09375 C 28.101562 -9.09375 30.328125 -9.320312 32.359375 -9.78125 C 34.398438 -10.238281 36.601562 -11.019531 38.96875 -12.125 L 38.96875 -2.21875 C 36.8125 -1.113281 34.582031 -0.351562 32.28125 0.0625 C 29.976562 0.488281 27.226562 0.703125 24.03125 0.703125 Z M 23.21875 -31.265625 C 21.601562 -31.265625 20.25 -30.75 19.15625 -29.71875 C 18.0625 -28.695312 17.421875 -27.097656 17.234375 -24.921875 L 29.078125 -24.921875 C 29.023438 -26.835938 28.472656 -28.375 27.421875 -29.53125 C 26.378906 -30.6875 24.976562 -31.265625 23.21875 -31.265625 Z M 23.21875 -31.265625" transform="translate(213.840941, 214.749442)"/></g></g></g><g fill="#fca311" fill-opacity="1"><g><g><path d="M 15.21875 0 L 0 -39.921875 L 14.375 -39.921875 L 21.140625 -16.3125 C 21.160156 -16.195312 21.207031 -16 21.28125 -15.71875 C 21.351562 -15.4375 21.425781 -15.097656 21.5 -14.703125 C 21.570312 -14.316406 21.632812 -13.90625 21.6875 -13.46875 C 21.75 -13.039062 21.78125 -12.640625 21.78125 -12.265625 L 22.03125 -12.265625 C 22.03125 -13.484375 22.238281 -14.8125 22.65625 -16.25 L 29.75 -39.921875 L 44.078125 -39.921875 L 28.859375 0 Z M 15.21875 0" transform="translate(258.450594, 214.749442)"/></g></g></g><g fill="#fff" fill-opacity="1"><g><g><path d="M 61.21875 0 L 44.75 0 L 39.828125 -22.453125 C 39.585938 -23.390625 39.210938 -25.253906 38.703125 -28.046875 C 38.203125 -30.847656 37.832031 -33.1875 37.59375 -35.0625 C 37.40625 -33.53125 37.097656 -31.628906 36.671875 -29.359375 C 36.253906 -27.097656 35.835938 -25.015625 35.421875 -23.109375 C 35.015625 -21.210938 33.3125 -13.507812 30.3125 0 L 13.84375 0 L 1.09375 -51.515625 L 14.515625 -51.515625 L 20.125 -25.6875 C 21.394531 -19.976562 22.265625 -15.429688 22.734375 -12.046875 C 23.035156 -14.441406 23.578125 -17.695312 24.359375 -21.8125 C 25.148438 -25.925781 25.890625 -29.332031 26.578125 -32.03125 L 31.109375 -51.515625 L 44.015625 -51.515625 L 48.421875 -32.03125 C 49.171875 -28.90625 49.929688 -25.296875 50.703125 -21.203125 C 51.484375 -17.117188 52.003906 -14.066406 52.265625 -12.046875 C 52.566406 -14.660156 53.398438 -19.1875 54.765625 -25.625 L 60.46875 -51.515625 L 73.90625 -51.515625 Z M 61.21875 0" transform="translate(302.538999, 214.749442)"/></g></g></g><g fill="#fff" fill-opacity="1"><g><g><path d="M 24.03125 0.703125 C 17.382812 0.703125 12.222656 -1.0625 8.546875 -4.59375 C 4.867188 -8.132812 3.03125 -13.171875 3.03125 -19.703125 C 3.03125 -26.441406 4.734375 -31.613281 8.140625 -35.21875 C 11.546875 -38.820312 16.410156 -40.625 22.734375 -40.625 C 28.742188 -40.625 33.382812 -39.054688 36.65625 -35.921875 C 39.9375 -32.785156 41.578125 -28.269531 41.578125 -22.375 L 41.578125 -16.25 L 16.953125 -16.25 C 17.046875 -14.007812 17.859375 -12.253906 19.390625 -10.984375 C 20.929688 -9.722656 23.03125 -9.09375 25.6875 -9.09375 C 28.101562 -9.09375 30.328125 -9.320312 32.359375 -9.78125 C 34.398438 -10.238281 36.601562 -11.019531 38.96875 -12.125 L 38.96875 -2.21875 C 36.8125 -1.113281 34.582031 -0.351562 32.28125 0.0625 C 29.976562 0.488281 27.226562 0.703125 24.03125 0.703125 Z M 23.21875 -31.265625 C 21.601562 -31.265625 20.25 -30.75 19.15625 -29.71875 C 18.0625 -28.695312 17.421875 -27.097656 17.234375 -24.921875 L 29.078125 -24.921875 C 29.023438 -26.835938 28.472656 -28.375 27.421875 -29.53125 C 26.378906 -30.6875 24.976562 -31.265625 23.21875 -31.265625 Z M 23.21875 -31.265625" transform="translate(377.522683, 214.749442)"/></g></g></g><g fill="#fff" fill-opacity="1"><g><g><path d="M 29.140625 -40.625 C 33.484375 -40.625 36.929688 -38.800781 39.484375 -35.15625 C 42.035156 -31.519531 43.3125 -26.484375 43.3125 -20.046875 C 43.3125 -13.566406 42.023438 -8.488281 39.453125 -4.8125 C 36.878906 -1.132812 33.300781 0.703125 28.71875 0.703125 C 27.238281 0.703125 25.921875 0.539062 24.765625 0.21875 C 23.617188 -0.09375 22.59375 -0.53125 21.6875 -1.09375 C 20.78125 -1.65625 19.726562 -2.59375 18.53125 -3.90625 L 17.6875 -3.90625 L 15.5 0 L 4.75 0 L 4.75 -54.828125 L 18.53125 -54.828125 L 18.53125 -42.421875 C 18.53125 -40.941406 18.367188 -38.394531 18.046875 -34.78125 L 18.53125 -34.78125 C 19.875 -36.851562 21.421875 -38.34375 23.171875 -39.25 C 24.921875 -40.164062 26.910156 -40.625 29.140625 -40.625 Z M 24.109375 -29.8125 C 22.179688 -29.8125 20.769531 -29.140625 19.875 -27.796875 C 18.976562 -26.460938 18.53125 -24.363281 18.53125 -21.5 L 18.53125 -19.5625 C 18.53125 -16.289062 18.976562 -13.941406 19.875 -12.515625 C 20.769531 -11.097656 22.226562 -10.390625 24.25 -10.390625 C 25.863281 -10.390625 27.101562 -11.21875 27.96875 -12.875 C 28.84375 -14.53125 29.28125 -16.96875 29.28125 -20.1875 C 29.28125 -26.601562 27.554688 -29.8125 24.109375 -29.8125 Z M 24.109375 -29.8125" transform="translate(422.132336, 214.749442)"/></g></g></g><g fill="#fca311" fill-opacity="1"><g><g><path d="M 31.75 -52.265625 L 12.546875 0.703125 L 0.359375 0.703125 L 19.5625 -52.265625 Z M 31.75 -52.265625" transform="translate(487.286026, 214.749442)"/></g></g></g><g fill="#fca311" fill-opacity="1"><g><g><path d="M 2.53125 -16.671875 L 24.390625 -25.546875 L 2.53125 -35.515625 L 2.53125 -45.984375 L 38.171875 -28.15625 L 38.171875 -22.09375 L 2.53125 -6.265625 Z M 2.53125 -16.671875" transform="translate(519.175243, 214.749442)"/></g></g></g></svg>